<svg width="180" height="180" viewBox="0 0 180 180" fill="none" xmlns="http://www.w3.org/2000/svg">
  <style>
    @media (prefers-color-scheme: light) {
      .bg { fill: #0a0a0a; }
      .icon { fill: #dc2626; }
    }
    @media (prefers-color-scheme: dark) {
      .bg { fill: #0a0a0a; }
      .icon { fill: #dc2626; }
    }
  </style>
  <rect class="bg" width="180" height="180" rx="24" />
  <!-- Radiation / trefoil symbol -->
  <g transform="translate(90,90)">
    <!-- Center circle -->
    <circle class="icon" cx="0" cy="0" r="14" />
    <!-- Three blades -->
    <path class="icon" d="M0,-18 A40,40 0 0,1 15.6,9 L8.7,5 A22,22 0 0,0 0,-10 Z" />
    <path class="icon" d="M15.6,9 A40,40 0 0,1 -15.6,9 L-8.7,5 A22,22 0 0,0 8.7,5 Z" />
    <path class="icon" d="M-15.6,9 A40,40 0 0,1 0,-18 L0,-10 A22,22 0 0,0 -8.7,5 Z" />
    <!-- Outer blades -->
    <path class="icon" d="M0,-28 A55,55 0 0,1 24.2,14 L15.6,9 A40,40 0 0,0 0,-18 Z" opacity="0.85" />
    <path class="icon" d="M24.2,14 A55,55 0 0,1 -24.2,14 L-15.6,9 A40,40 0 0,0 15.6,9 Z" opacity="0.85" />
    <path class="icon" d="M-24.2,14 A55,55 0 0,1 0,-28 L0,-18 A40,40 0 0,0 -15.6,9 Z" opacity="0.85" />
  </g>
</svg>